<svg version="1" xmlns="http://www.w3.org/2000/svg" width="933.333" height="933.333" viewBox="0 0 700.000000 700.000000"><path d="M342.3 8.3c-5 4-16.4 12.8-25.3 19.7-8.9 6.9-17.4 13.5-18.9 14.7-1.4 1.2-10.2 8.1-19.6 15.3-9.3 7.3-18.3 14.3-20 15.6-1.6 1.3-8.8 6.8-16 12.4-7.1 5.5-14.3 11.1-16 12.4-1.6 1.4-10.4 8.2-19.5 15.2-9.1 7.1-17 13.3-17.7 13.9-.6.5-5.2 4.1-10.3 8l-9.1 7 2.3 1.8c1.3 1.1 3.9 3.2 5.8 4.7s19.5 15.8 39 31.6c19.5 15.9 36 29.2 36.5 29.6.6.5 2.1 1.8 3.5 2.9 1.4 1.2 4.3 3.6 6.5 5.4 2.2 1.7 21.1 17.1 42 34 20.9 17 39.8 32.3 42 34.1l4 3.2 8-7c4.4-3.8 10.4-9.1 13.4-11.6 3-2.6 9.5-8.3 14.4-12.6 5-4.3 10.4-9.1 12-10.5 1.7-1.4 4-3.5 5.2-4.6 1.3-1.1 4.9-4.3 8.1-7 3.1-2.8 6.2-5.5 6.8-6 .6-.6 4.5-3.9 8.6-7.5s7.7-6.7 8-7c.3-.3 3.9-3.4 8-7s7.7-6.7 8-7c.3-.3 3.9-3.4 8-7s8-7 8.6-7.5c.6-.6 3.9-3.5 7.4-6.5 3.5-3 6.8-6 7.4-6.5.6-.6 4.2-3.7 8.1-7 3.8-3.3 7.5-6.5 8.1-7 .9-.9 7.6-6.7 17.7-15.5l2.9-2.5-9.4-7.9c-5.1-4.3-11.7-9.9-14.7-12.4-3-2.6-6.3-5.4-7.5-6.2-1.1-.8-2.5-1.9-3.1-2.6-.9-1-28.8-24.5-63.8-53.6-7-6-13.4-11.4-14.2-12-.7-.7-2.1-2-3.2-2.8-4.7-3.8-12.8-10.5-13.3-11-.9-1-37.5-31.6-38.5-32.2-.6-.3-5.1 2.6-10.2 6.5z"/><path d="M515.5 173.7c-5.3 4.8-9.6 8.6-18 15.8-3.9 3.3-7.5 6.4-8.1 7-2.2 2-14.1 12.4-26.4 23-6.9 5.9-15.2 13.1-18.5 16-7.7 6.8-42.5 37-63.1 54.8-8.7 7.7-18.1 15.9-20.9 18.2-8.4 7.4-9.8 8.5-10.2 8.5-.4 0-13.6-10.4-15.9-12.5-.6-.6-2.8-2.4-5-4.2-15.1-12.2-80.7-65-92.9-74.8-8.3-6.6-15.2-12.2-15.5-12.5-.3-.3-2.7-2.4-5.5-4.5-2.7-2.2-5.2-4.2-5.5-4.5-.5-.5-15.4-12.5-32-25.8-3.5-2.9-7-5-7.6-4.8-.7.3-11.9 9.2-25.1 19.8-20.8 16.9-64.3 52.1-71.2 57.6l-2.4 1.9 3.8 3.4c2.1 1.9 4.3 3.9 4.9 4.4.6.6 4.5 3.9 8.6 7.5s7.9 7 8.5 7.6c.5.5 4.4 3.9 8.5 7.5 4.1 3.5 7.7 6.6 8 6.9.3.3 4.1 3.6 8.5 7.5 4.4 3.8 8.5 7.4 9.1 8 .6.5 3.9 3.5 7.4 6.5 3.5 3 8.7 7.5 11.5 10 2.8 2.5 8.1 7.2 11.9 10.5 6.4 5.6 8.1 7.1 14.6 12.9 1.4 1.2 6.3 5.6 11 9.7 7.8 6.8 13.6 11.9 16.4 14.4.6.6 6.3 5.5 12.6 11s12 10.5 12.5 11.1c.6.6 6.2 5.5 12.5 11 6.3 5.4 13.3 11.5 15.4 13.4 2.1 1.9 4.4 3.9 5 4.5.6.5 4.5 3.9 8.6 7.5s7.7 6.7 8 7c.5.5 12.6 11.1 18.9 16.6 1.8 1.6 4.6 4 6.1 5.4 1.6 1.4 5.4 4.7 8.6 7.5 3.1 2.7 9.8 8.6 14.8 13 21.5 19 20.8 18.5 22.6 17.2.9-.7 4.4-3.5 7.6-6.3 3.2-2.8 15.4-13.1 26.9-23 11.6-9.8 21.2-18.1 21.5-18.4.3-.3 3-2.5 6-5s6-4.9 6.6-5.5c2.2-2 17.4-15 53.9-46.1 22.1-18.7 29.4-25 32-27.3 1.7-1.4 8.6-7.4 15.5-13.1 6.9-5.8 12.7-10.8 13-11.1.3-.3 8.2-7.1 17.5-15 18.4-15.6 19.5-16.5 27.1-23 2.8-2.4 7.5-6.5 10.5-9 4.7-4.1 13.5-11.5 23.3-19.9 1.6-1.4 6.2-5.4 10.3-8.8l7.3-6.4-7.7-6.1c-4.3-3.4-8.3-6.6-8.9-7.2-.6-.5-2.4-2-4-3.2-2.7-2.1-31.9-25.3-39.4-31.4-15.9-12.8-48.8-38.9-49.1-38.9-.2 0-2.2 1.7-4.4 3.7z"/><path d="M94.9 322c-33.5 26.5-73.9 58.2-83.8 65.9l-8.4 6.5 4 3.5c2.2 2 6.6 5.9 9.9 8.7 3.2 2.8 10 8.6 14.9 12.9 5 4.2 11.5 9.9 14.5 12.5 12.5 10.9 68.9 59.6 74.5 64.4 3.3 2.8 8 6.9 10.5 9.1 2.5 2.2 7.7 6.7 11.5 10 3.9 3.3 7.2 6.2 7.5 6.5.3.3 8.6 7.5 18.5 16s18.2 15.7 18.5 16c.3.3 7 6.2 15 13 8 6.9 14.7 12.7 15 13 .6.6 13.7 12 17 14.8 3.3 2.8 5.5 4.7 12.6 10.8 3.2 2.8 8.2 7.1 10.9 9.4 2.8 2.3 7.7 6.6 11 9.5 3.3 2.9 18.6 16.2 34 29.5 15.4 13.3 32.6 28.2 38.2 33.1 9.8 8.5 11.7 9.8 12.5 8.1.2-.4 3.9-3.9 8.3-7.7 4.4-3.9 8.2-7.2 8.5-7.5.3-.3 3.7-3.2 7.5-6.5 3.9-3.3 7.5-6.5 8-7.1.6-.6 8.2-7.3 17-15 8.8-7.6 16.2-14.1 16.5-14.4.3-.3 4.1-3.7 8.5-7.5 4.4-3.9 8.2-7.2 8.5-7.5.3-.3 5.9-5.3 12.5-11 6.6-5.8 12.2-10.7 12.5-11 .3-.3 5.9-5.2 12.5-10.9 6.6-5.8 12.5-11 13-11.6.6-.5 6-5.3 12-10.5 6.1-5.2 11.2-9.7 11.5-10 .3-.3 4.1-3.7 8.5-7.6 7.4-6.5 10.7-9.4 16.1-14.1 3.1-2.6 16-14 22.2-19.7 3-2.6 6.8-6 8.5-7.5 4.2-3.6 13.5-11.8 17.7-15.5 1.9-1.7 14.5-12.8 28-24.6 23.9-20.9 30.6-26.9 34-30 .9-.8 3.4-3 5.5-4.9 3.7-3.1 9.5-8.2 23-20.1 12.8-11.3 18.8-16.6 19.9-17.3 1.4-1 .7-1.5-25.4-21.2-11.3-8.4-20.9-15.8-21.5-16.2-2.7-2.3-50.6-38.3-52.3-39.4-1.8-1.1-2.9-.5-10.9 6.1-4.8 4.1-10.1 8.7-11.8 10.1-2.5 2.2-10.6 9.1-28.5 24.3-3.3 2.8-14.8 12.5-18 15.3-1.4 1.1-6.1 5.2-10.6 9-4.4 3.7-15 12.7-23.5 20-32.8 28-38.7 32.9-43.9 37.3-2.9 2.5-7.2 6.1-9.4 8.1-2.3 1.9-15.1 12.9-28.6 24.4-13.5 11.4-27 22.9-30 25.5-22.1 19-29.4 25-30.4 25.3-.4.2-10.6-8.5-21.1-17.8-1.2-1.1-5.1-4.5-8.6-7.5-5.8-5.1-14.6-12.8-33.9-29.9-4.1-3.6-9.2-8.2-11.5-10.1-2.2-1.9-4.2-3.7-4.5-4-.3-.3-3.9-3.4-8-6.9-4.1-3.6-8.4-7.4-9.6-8.5-1.2-1.2-3.4-3.2-5-4.5-3.4-2.8-34.7-30.3-35.4-31.1-.3-.3-3.9-3.4-8-7s-8.6-7.5-10-8.7c-1.4-1.2-3.4-3-4.6-4-3.5-3.1-15.6-13.7-16.8-14.8-.6-.6-4.9-4.4-9.6-8.4-4.7-4.1-8.7-7.7-9-8-.3-.4-3.4-3.1-7-6.1-3.5-3-7.2-6.2-8-7-.9-.8-4.7-4.2-8.5-7.5-3.7-3.3-7.3-6.5-7.9-7-4.3-4-14.4-12.5-14.8-12.5-.3 0-5.7 4-11.9 9z"/></svg>