<?xml version="1.0" encoding="UTF-8"?>
<svg width="16px" height="19px" viewBox="0 0 16 19" version="1.1" xmlns="http://www.w3.org/2000/svg" xmlns:xlink="http://www.w3.org/1999/xlink">
    <title>Artboard</title>
    <g id="Artboard" stroke="none" stroke-width="1" fill="none" fill-rule="evenodd">
        <path d="M8.2226562,4.3846154 C9.0546875,4.3846154 10.0976562,3.8048315 10.71875,3.0317864 C11.28125,2.3312142 11.6914062,1.352829 11.6914062,0.3744437 C11.6914062,0.2415766 11.6796875,0.1087095 11.65625,0 C10.7304687,0.0362365 9.6171875,0.640178 8.9492187,1.4494596 C8.421875,2.06548 7.9414062,3.0317864 7.9414062,4.0222505 C7.9414062,4.1671964 7.9648438,4.3121424 7.9765625,4.3604577 C8.0351562,4.3725366 8.1289062,4.3846154 8.2226562,4.3846154 Z M5.2929688,19 C6.4296875,19 6.9335938,18.214876 8.3515625,18.214876 C9.7929688,18.214876 10.109375,18.9758423 11.375,18.9758423 C12.6171875,18.9758423 13.4492188,17.792117 14.234375,16.6325493 C15.1132812,15.3038779 15.4765625,13.9993643 15.5,13.9389701 C15.4179688,13.9148125 13.0390625,12.9122695 13.0390625,10.0979021 C13.0390625,7.6579784 14.9140625,6.5588048 15.0195312,6.474253 C13.7773438,4.6382708 11.890625,4.5899555 11.375,4.5899555 C9.9804688,4.5899555 8.84375,5.4596313 8.1289062,5.4596313 C7.3554688,5.4596313 6.3359375,4.6382708 5.1289062,4.6382708 C2.8320312,4.6382708 0.5,6.5950413 0.5,10.2911634 C0.5,12.5861411 1.3671875,15.013986 2.4335938,16.5842339 C3.3476562,17.9129053 4.1445312,19 5.2929688,19 Z" id="" fill="#FFFFFF" fill-rule="nonzero"></path>
    </g>
</svg>