<?xml version="1.0" encoding="UTF-8"?>
<svg width="20px" height="20px" viewBox="0 0 20 20" version="1.1" xmlns="http://www.w3.org/2000/svg" xmlns:xlink="http://www.w3.org/1999/xlink">
    <title>Artboard</title>
    <g id="Artboard" stroke="none" stroke-width="1" fill="none" fill-rule="evenodd">
        <g id="web_light_rd_na" fill-rule="nonzero">
            <path d="M19.6,10.2273 C19.6,9.5182 19.5364,8.8364 19.4182,8.1818 L10,8.1818 L10,12.05 L15.3818,12.05 C15.15,13.3 14.4455,14.3591 13.3864,15.0682 L13.3864,17.5773 L16.6182,17.5773 C18.5091,15.8364 19.6,13.2727 19.6,10.2273 Z" id="Path" fill="#4285F4"></path>
            <path d="M10,20 C12.7,20 14.9636,19.1045 16.6181,17.5773 L13.3863,15.0682 C12.4909,15.6682 11.3454,16.0227 10,16.0227 C7.3954,16.0227 5.1909,14.2636 4.4045,11.9 L1.0636,11.9 L1.0636,14.4909 C2.7091,17.7591 6.0909,20 10,20 Z" id="Path" fill="#34A853"></path>
            <path d="M4.4045,11.9 C4.2045,11.3 4.0909,10.6591 4.0909,10 C4.0909,9.3409 4.2045,8.7 4.4045,8.1 L4.4045,5.5091 L1.0636,5.5091 C0.3864,6.8591 0,8.3864 0,10 C0,11.6136 0.3864,13.1409 1.0636,14.4909 L4.4045,11.9 Z" id="Path" fill="#FBBC04"></path>
            <path d="M10,3.9773 C11.4681,3.9773 12.7863,4.4818 13.8227,5.4727 L16.6909,2.6045 C14.9591,0.9909 12.6954,0 10,0 C6.0909,0 2.7091,2.2409 1.0636,5.5091 L4.4045,8.1 C5.1909,5.7364 7.3954,3.9773 10,3.9773 Z" id="Path" fill="#E94235"></path>
        </g>
    </g>
</svg>