<?xml version="1.0" encoding="UTF-8"?>
<svg width="167px" height="36px" viewBox="0 0 167 36" version="1.1" xmlns="http://www.w3.org/2000/svg" xmlns:xlink="http://www.w3.org/1999/xlink">
    <title>Group 4</title>
    <g id="Landing" stroke="none" stroke-width="1" fill="none" fill-rule="evenodd">
        <g id="04-Landing---Real-Text" transform="translate(-170.000000, -1508.000000)">
            <g id="Group-4" transform="translate(170.000000, 1508.000000)">
                <path d="M53.5659907,21.6324 C54.8523628,21.6324 55.4538977,21.1154233 55.4538977,20.2438884 C55.4538977,19.3003535 54.7565023,18.6992372 53.6204093,18.6992372 L51.7270605,18.6992372 L51.7270605,21.6324 L53.5659907,21.6324 Z M53.3738512,16.7820279 C54.3475256,16.7820279 55.0449209,16.2771907 55.0449209,15.4115163 C55.0449209,14.5939814 54.4136651,14.0832837 53.4219907,14.0832837 L51.7270605,14.0832837 L51.7270605,16.7820279 L53.3738512,16.7820279 Z M48.7520372,11.7210977 L53.8849674,11.7210977 C56.6498512,11.7210977 58.0798047,12.9773302 58.0798047,14.8342605 C58.0798047,16.2407721 57.1308279,17.2207256 55.7783163,17.5032837 L55.7783163,17.6234233 C57.2689674,17.6895628 58.5612,18.8072372 58.5612,20.586307 C58.5612,22.5759349 56.9981302,24.030586 54.2755256,24.030586 L48.7520372,24.030586 L48.7520372,11.7210977 Z" id="Fill-1" fill="#FFFFFF"></path>
                <polygon id="Fill-3" fill="#FFFFFF" points="65.9197256 11.7209721 74.5027953 11.7209721 74.5027953 14.1371581 68.8947488 14.1371581 68.8947488 16.6617628 74.0636791 16.6617628 74.0636791 19.0838093 68.8947488 19.0838093 68.8947488 21.6142744 74.5027953 21.6142744 74.5027953 24.0304605 65.9197256 24.0304605"></polygon>
                <path d="M86.7297767,21.4942186 C88.8031256,21.4942186 89.9392186,20.5326837 89.9392186,17.8699395 C89.9392186,15.2189163 88.8031256,14.2573814 86.6870791,14.2573814 L85.2688465,14.2573814 L85.2688465,21.4942186 L86.7297767,21.4942186 Z M82.2934047,24.0305442 L82.2934047,11.7210558 L86.8377767,11.7210558 C90.5943349,11.7210558 92.9205209,14.0292419 92.9205209,17.8699395 C92.9205209,21.7164977 90.5943349,24.0305442 86.8432186,24.0305442 L82.2934047,24.0305442 Z" id="Fill-5" fill="#FFFFFF"></path>
                <path d="M105.02167,17.4731023 C106.356181,17.4731023 107.071158,16.961986 107.071158,15.8200326 C107.071158,14.6780791 106.356181,14.1192419 105.02167,14.1192419 L103.554879,14.1192419 L103.554879,17.4731023 L105.02167,17.4731023 Z M100.579856,11.7210558 L105.664647,11.7210558 C108.42953,11.7210558 110.1546,13.2895674 110.1546,15.8200326 C110.1546,17.5212419 109.373065,18.7293349 108.020553,19.3421721 L110.575716,24.0305442 L107.329856,24.0305442 L105.08153,19.8172884 L103.554879,19.8172884 L103.554879,24.0305442 L100.579856,24.0305442 L100.579856,11.7210558 Z" id="Fill-7" fill="#FFFFFF"></path>
                <path d="M123.451284,14.1612698 C121.678493,14.1612698 120.6144,15.4656419 120.6144,17.8759674 C120.6144,20.2858744 121.678493,21.5902465 123.451284,21.5902465 C125.230353,21.5902465 126.288167,20.2858744 126.288167,17.8759674 C126.288167,15.4656419 125.230353,14.1612698 123.451284,14.1612698 M123.451284,24.1989907 C120.133423,24.1989907 117.579098,21.9268047 117.579098,17.8759674 C117.579098,13.8067116 120.133423,11.5529442 123.451284,11.5529442 C126.757005,11.5529442 129.32933,13.8067116 129.32933,17.8759674 C129.32933,21.9448047 126.757005,24.1989907 123.451284,24.1989907" id="Fill-9" fill="#FFFFFF"></path>
                <path d="M145.157819,16.1807023 C145.00754,14.9487488 144.123447,14.1613535 142.771353,14.1613535 C140.974284,14.1613535 139.892191,15.525586 139.892191,17.8756326 C139.892191,20.3219581 140.997726,21.5903302 142.753353,21.5903302 C144.057307,21.5903302 144.946842,20.8870744 145.157819,19.7028419 L148.162563,19.7212605 C147.939865,21.9026093 146.071214,24.1986558 142.692656,24.1986558 C139.351353,24.1986558 136.856888,21.9268884 136.856888,17.8756326 C136.856888,13.8067953 139.411214,11.5526093 142.692656,11.5526093 C145.668098,11.5526093 147.862423,13.2354 148.162563,16.1807023 L145.157819,16.1807023 Z" id="Fill-11" fill="#FFFFFF"></path>
                <polygon id="Fill-13" fill="#FFFFFF" points="155.786484 11.7209721 158.761507 11.7209721 158.761507 16.9263209 158.923507 16.9263209 162.992763 11.7209721 166.496902 11.7209721 162.133367 17.2147395 166.575181 24.0304605 163.017042 24.0304605 159.951181 19.1922279 158.761507 20.6946 158.761507 24.0304605 155.786484 24.0304605"></polygon>
                <g id="Group-7" transform="translate(-0.000000, 0.000000)">
                    <polygon id="Fill-1" fill="#423629" points="9.01992857 35.9960786 26.6991429 35.95815 36.2153571 23.0045786"></polygon>
                    <polygon id="Fill-2" fill="#423629" points="33.2418214 0.000257142857 16.90425 7.07554286 36.2156786 23.0049"></polygon>
                    <polygon id="Fill-3" fill="#574C41" points="11.2780929 15.4284429 9.01973571 35.9960143 36.2158071 23.0045143 16.9043786 7.0758"></polygon>
                    <polygon id="Fill-4" fill="#6B6256" points="0 18.2640214 9.01992857 35.99595 11.2782857 15.4283786"></polygon>
                    <polygon id="Fill-5" fill="#B3AAA0" points="0 18.2640214 11.2782857 15.4283786 16.9039286 7.07573571 2.94364286 5.33166429"></polygon>
                    <polygon id="Fill-6" fill="#8C8479" points="33.2418214 0.000257142857 2.94396429 5.33211429 16.90425 7.07554286"></polygon>
                </g>
            </g>
        </g>
    </g>
</svg>